<svg width="1608" height="251" viewBox="0 0 1608 251" fill="none" xmlns="http://www.w3.org/2000/svg">
<path d="M0.131894 247.565C51.2444 245.317 77.7786 216.627 129.024 201.487C173.577 188.324 198.205 175.241 244.583 173.39C272.418 172.279 288.107 175.122 315.696 179.009C384.772 188.742 418.991 247.148 486.812 230.707C539.898 217.839 547.366 164.224 599.038 146.417C627.331 136.666 646.11 143.217 674.595 134.055C736.709 114.075 744.805 22.8758 809.044 34.0304C837.169 38.9142 844.954 68.5802 873.49 68.8703C895.734 69.0963 904.677 50.7408 926.825 48.6407C963.738 45.1404 978.919 77.778 1015.72 82.3567C1093.7 92.0604 1123.3 -6.08501 1201.28 3.68599C1265.83 11.7743 1281.48 71.5428 1343.5 91.3476C1375.48 101.558 1397.77 92.2921 1427.95 107.082C1461.66 123.6 1462.15 162.253 1497.95 173.39C1539.8 186.408 1536.84 117.196 1606.84 146.417" stroke="#A060FC" stroke-width="3"/>
</svg>
