<svg width="1607" height="188" viewBox="0 0 1607 188" fill="none" xmlns="http://www.w3.org/2000/svg">
<path d="M0.637252 104.635C78.3345 87.7473 140.101 181.969 230.399 162.045C324.274 141.331 362.485 11.2075 420.202 3.32487C477.92 -4.55779 536.599 133.993 634.425 135.028C671.915 135.425 693.119 128.78 728.772 117.018C760.498 106.55 773.883 88.2555 806.469 80.9962C888.831 62.6482 925.38 159.742 1009.59 155.291C1073.68 151.903 1067.31 114.766 1163.88 97.8813C1260.44 80.9962 1244.23 151.411 1302.62 155.291C1353.53 158.672 1379.25 127.06 1430.27 127.149C1502.65 127.275 1525.72 177.801 1606.75 184.558" stroke="#45AAF2" stroke-width="3"/>
</svg>
