<svg width="18" height="24" viewBox="0 0 18 24" fill="none" xmlns="http://www.w3.org/2000/svg">
<path d="M16.7238 19.7457H5.86082L11.6669 13.5643C12.7906 12.4404 13.7271 11.1291 14.289 10.0052C15.0381 8.88134 15.2254 7.57012 15.2254 6.63353C15.2254 4.94768 14.6636 3.44914 13.3525 2.51256C12.2288 1.57597 10.5431 1.01401 8.6702 1.01401C7.35915 1.01401 6.2354 1.20133 4.92435 1.76329C3.8006 2.51256 2.67685 3.26182 1.92768 4.19841L1.3658 4.76036L3.05143 6.82086L3.8006 6.07158C4.54977 5.32231 5.29894 4.76036 6.2354 4.38573C7.17186 4.01109 7.92104 3.82377 8.8575 3.82377C10.1685 3.82377 11.105 4.01109 11.6669 4.57305C12.2288 5.135 12.6033 5.69695 12.6033 6.63353C12.6033 7.57012 12.0415 9.06866 9.79396 11.6911L1.92768 20.1204V21.4316V22.3682H16.9111L16.7238 19.7457Z" fill="#323F47" stroke="#323F47"/>
</svg>
