<svg width="1611" height="201" viewBox="0 0 1611 201" fill="none" xmlns="http://www.w3.org/2000/svg">
<path d="M1609.73 116.723C1609.73 116.723 1589.94 107.473 1576.4 104.483C1518.65 91.7272 1494.56 151.487 1436.42 162.344C1401.81 168.809 1381.53 170.793 1346.44 167.908C1271.04 161.709 1225.15 142.52 1167.58 93.3555C1142.33 71.7919 1138.71 48.0894 1110.92 29.9301C1064.05 -0.696393 1022.59 -3.06025 968.722 12.1265C934.482 21.779 923.289 45.6157 889.845 57.7483C844.709 74.1227 813.532 56.9787 767.643 71.101C703.901 90.7173 685.067 137.37 623.222 162.344C562.772 186.756 525.035 199.581 459.914 196.839C419.705 195.146 396.999 189.557 358.82 176.81C307.444 159.657 290.58 115.715 236.617 111.159C187.506 107.013 162.307 131.234 115.525 146.766C70.3142 161.777 1.09931 189.05 1.09931 189.05" stroke="#30C7DC" stroke-width="3"/>
</svg>
