<svg width="54" height="74" viewBox="0 0 54 74" fill="none" xmlns="http://www.w3.org/2000/svg">
<path d="M26.6897 72.9924C12.5459 72.9924 1.00757 61.4525 1.00757 47.3068C1.00757 33.5334 24.4565 3.00844 25.387 1.70555C26.1314 0.774915 27.4341 0.774915 28.1786 1.70555C29.1091 3.00844 52.558 33.5334 52.558 47.3068C52.558 61.4525 40.8335 72.9924 26.6897 72.9924ZM26.6897 5.61423C21.665 12.5009 4.54352 36.5114 4.54352 47.3068C4.54352 59.5912 14.5931 69.456 26.6897 69.456C38.9725 69.456 49.0221 59.4051 49.0221 47.3068C49.0221 36.5114 31.7145 12.5009 26.6897 5.61423Z" fill="white" stroke="white"/>
</svg>
