<svg width="1611" height="201" viewBox="0 0 1611 201" fill="none" xmlns="http://www.w3.org/2000/svg">
<path d="M1.27027 116.723C1.27027 116.723 21.0608 107.473 34.5983 104.483C92.3477 91.7272 116.441 151.487 174.576 162.344C209.188 168.809 229.471 170.793 264.561 167.908C339.964 161.709 385.85 142.52 443.421 93.3555C468.672 71.7919 472.287 48.0894 500.079 29.9301C546.952 -0.696393 588.407 -3.06025 642.278 12.1265C676.518 21.779 687.711 45.6157 721.155 57.7483C766.291 74.1227 797.468 56.9787 843.357 71.101C907.099 90.7173 925.933 137.37 987.778 162.344C1048.23 186.756 1085.96 199.581 1151.09 196.839C1191.29 195.146 1214 189.557 1252.18 176.81C1303.56 159.657 1320.42 115.715 1374.38 111.159C1423.49 107.013 1448.69 131.234 1495.47 146.766C1540.69 161.777 1609.9 189.05 1609.9 189.05" stroke="#73CF7A" stroke-width="3"/>
</svg>
