<svg width="71" height="67" viewBox="0 0 71 67" fill="none" xmlns="http://www.w3.org/2000/svg">
<path d="M68.6764 37.1782H38.0818L58.4782 57.7036C59.2527 58.4782 60.5436 58.4782 61.3182 57.7036C66.3527 53.0564 69.8382 46.7309 70.7418 39.5018C71 38.34 69.9673 37.1782 68.6764 37.1782ZM66.6109 28.9164C65.5782 13.4255 53.3145 1.16182 37.8236 0.129091C36.6618 0 35.7582 1.03273 35.7582 2.19455V30.9818H64.5455C65.7073 30.9818 66.74 30.0782 66.6109 28.9164ZM29.5618 37.1782V6.58364C29.5618 5.42182 28.4 4.38909 27.2382 4.51818C11.7473 6.71273 0 20.1382 0.645455 36.2745C1.16182 52.7982 15.3618 66.3527 32.0145 66.0945C38.4691 66.0945 44.5364 64.0291 49.4418 60.4145C50.4745 59.7691 50.4745 58.22 49.5709 57.3164L29.5618 37.1782Z" fill="white"/>
</svg>
