<svg width="64" height="56" viewBox="0 0 64 56" fill="none" xmlns="http://www.w3.org/2000/svg">
<path d="M58 56C61.25 56 64 53.375 64 50V6C64 2.75 61.25 0 58 0H6C2.625 0 0 2.75 0 6V50C0 53.375 2.625 56 6 56H58ZM16 11C18.75 11 21 13.25 21 16C21 18.875 18.75 21 16 21C13.125 21 11 18.875 11 16C11 13.25 13.125 11 16 11ZM16 23C18.75 23 21 25.25 21 28C21 30.875 18.75 33 16 33C13.125 33 11 30.875 11 28C11 25.25 13.125 23 16 23ZM16 35C18.75 35 21 37.25 21 40C21 42.875 18.75 45 16 45C13.125 45 11 42.875 11 40C11 37.25 13.125 35 16 35ZM52 18C52 18.875 51.25 19.5 50.5 19.5H25.5C24.625 19.5 24 18.875 24 18V14C24 13.25 24.625 12.5 25.5 12.5H50.5C51.25 12.5 52 13.25 52 14V18ZM52 30C52 30.875 51.25 31.5 50.5 31.5H25.5C24.625 31.5 24 30.875 24 30V26C24 25.25 24.625 24.5 25.5 24.5H50.5C51.25 24.5 52 25.25 52 26V30ZM52 42C52 42.875 51.25 43.5 50.5 43.5H25.5C24.625 43.5 24 42.875 24 42V38C24 37.25 24.625 36.5 25.5 36.5H50.5C51.25 36.5 52 37.25 52 38V42Z" fill="white"/>
</svg>
