<svg width="83" height="58" viewBox="0 0 83 58" fill="none" xmlns="http://www.w3.org/2000/svg">
<path d="M24.8571 29C32.7545 29 39.3571 22.5268 39.3571 14.5C39.3571 6.60268 32.7545 0 24.8571 0C16.8304 0 10.3571 6.60268 10.3571 14.5C10.3571 22.5268 16.8304 29 24.8571 29ZM34.6964 33.1429H33.6607C30.942 34.4375 27.9643 35.2143 24.8571 35.2143C21.6205 35.2143 18.6429 34.4375 15.9241 33.1429H14.8884C6.60268 33.1429 0 39.875 0 48.1607V51.7857C0 55.2813 2.71875 58 6.21429 58H43.5C46.8661 58 49.7143 55.2813 49.7143 51.7857V48.1607C49.7143 39.875 42.9821 33.1429 34.6964 33.1429ZM62.1429 29C69.0045 29 74.5714 23.433 74.5714 16.5714C74.5714 9.70982 69.0045 4.14286 62.1429 4.14286C55.2812 4.14286 49.7143 9.70982 49.7143 16.5714C49.7143 23.433 55.2812 29 62.1429 29ZM68.3571 33.1429H67.8393C66.0268 33.7902 64.0848 34.1786 62.1429 34.1786C60.0714 34.1786 58.1295 33.7902 56.317 33.1429H55.9286C53.2098 33.1429 50.75 33.9196 48.6786 35.2143C51.7857 38.5804 53.8571 43.1116 53.8571 48.1607V53.0804C53.8571 53.3393 53.7277 53.5982 53.7277 53.8571H76.6429C80.0089 53.8571 82.8571 51.1384 82.8571 47.6429C82.8571 39.7455 76.2545 33.1429 68.3571 33.1429Z" fill="white"/>
</svg>
