<svg width="62" height="65" viewBox="0 0 62 65" fill="none" xmlns="http://www.w3.org/2000/svg">
<path d="M60.978 40.2196L55.3992 37.1058C56.0479 33.992 56.0479 31.008 55.3992 27.8942L60.978 24.7804C61.6267 24.3912 61.8862 23.6128 61.6267 22.9641C60.1996 18.2934 57.7345 14.1417 54.6208 10.6387C54.1018 10.1198 53.3234 9.99002 52.6747 10.3792L47.0958 13.493C44.7605 11.5469 42.1657 9.99002 39.3114 8.9521V2.59481C39.3114 1.94611 38.7924 1.29741 38.014 1.16766C33.2136 0 28.4132 0.129741 23.8723 1.16766C23.0938 1.29741 22.7046 1.94611 22.7046 2.59481V8.9521C19.7206 9.99002 17.1257 11.5469 14.7904 13.6228L9.21158 10.3792C8.56287 9.99002 7.78443 10.1198 7.26547 10.6387C4.1517 14.1417 1.68663 18.2934 0.259481 22.9641C0 23.6128 0.259481 24.3912 0.908184 24.7804L6.48703 27.8942C5.96806 31.008 5.96806 33.992 6.48703 37.1058L0.908184 40.2196C0.259481 40.6088 0 41.3872 0.259481 42.0359C1.68663 46.7066 4.1517 50.8583 7.26547 54.3613C7.78443 54.8802 8.56287 55.01 9.21158 54.6208L14.7904 51.507C17.1257 53.4531 19.7206 55.01 22.7046 56.0479V62.4052C22.7046 63.0539 23.2236 63.7026 23.8723 63.9621C28.6727 65 33.4731 64.8703 38.014 63.9621C38.7924 63.7026 39.3114 63.0539 39.3114 62.4052V56.0479C42.1657 55.01 44.7605 53.4531 47.0958 51.507L52.6747 54.6208C53.3234 55.01 54.1018 54.8802 54.6208 54.3613C57.8643 50.8583 60.1996 46.7066 61.7565 42.0359C61.8862 41.3872 61.6267 40.6088 60.978 40.2196ZM31.008 42.8144C25.1697 42.8144 20.6287 38.2735 20.6287 32.4351C20.6287 26.7265 25.1697 22.0559 31.008 22.0559C36.7166 22.0559 41.3872 26.7265 41.3872 32.4351C41.3872 38.2735 36.7166 42.8144 31.008 42.8144Z" fill="white"/>
</svg>
