<svg width="66" height="66" viewBox="0 0 66 66" fill="none" xmlns="http://www.w3.org/2000/svg">
<path d="M0 52.3359V57.75C0 62.3906 11.0859 66 24.75 66C38.4141 66 49.5 62.3906 49.5 57.75V52.3359C44.0859 56.0742 34.418 57.75 24.75 57.75C14.9531 57.75 5.28516 56.0742 0 52.3359ZM41.25 16.5C54.9141 16.5 66 12.8906 66 8.25C66 3.73828 54.9141 0 41.25 0C27.5859 0 16.5 3.73828 16.5 8.25C16.5 12.8906 27.5859 16.5 41.25 16.5ZM0 38.8008V45.375C0 50.0156 11.0859 53.625 24.75 53.625C38.4141 53.625 49.5 50.0156 49.5 45.375V38.8008C44.0859 43.1836 34.418 45.375 24.75 45.375C14.9531 45.375 5.28516 43.1836 0 38.8008ZM53.625 40.2188C60.9727 38.8008 66 36.0938 66 33V27.5859C62.9062 29.6484 58.5234 31.0664 53.625 31.9688V40.2188ZM24.75 20.625C11.0859 20.625 0 25.2656 0 30.9375C0 36.7383 11.0859 41.25 24.75 41.25C38.4141 41.25 49.5 36.7383 49.5 30.9375C49.5 25.2656 38.4141 20.625 24.75 20.625ZM52.9805 27.9727C60.7148 26.5547 66 23.8477 66 20.625V15.2109C61.3594 18.4336 53.4961 20.1094 45.2461 20.625C48.9844 22.4297 51.8203 24.8789 52.9805 27.9727Z" fill="white"/>
</svg>
