<svg width="66" height="58" viewBox="0 0 66 58" fill="none" xmlns="http://www.w3.org/2000/svg">
<path d="M4.125 53.625C4.125 55.9453 5.92969 57.75 8.25 57.75H57.75C59.9414 57.75 61.875 55.9453 61.875 53.625V16.5H4.125V53.625ZM24.75 26.2969C24.75 25.5234 25.3945 24.75 26.2969 24.75H39.7031C40.4766 24.75 41.25 25.5234 41.25 26.2969V27.3281C41.25 28.2305 40.4766 28.875 39.7031 28.875H26.2969C25.3945 28.875 24.75 28.2305 24.75 27.3281V26.2969ZM61.875 0H4.125C1.80469 0 0 1.93359 0 4.125V10.3125C0 11.4727 0.902344 12.375 2.0625 12.375H63.9375C64.9688 12.375 66 11.4727 66 10.3125V4.125C66 1.93359 64.0664 0 61.875 0Z" fill="white"/>
</svg>
