<svg width="56" height="64" viewBox="0 0 56 64" fill="none" xmlns="http://www.w3.org/2000/svg">
<path d="M0 58C0 61.375 2.625 64 6 64H50C53.25 64 56 61.375 56 58V24H0V58ZM40 33.5C40 32.75 40.625 32 41.5 32H46.5C47.25 32 48 32.75 48 33.5V38.5C48 39.375 47.25 40 46.5 40H41.5C40.625 40 40 39.375 40 38.5V33.5ZM40 49.5C40 48.75 40.625 48 41.5 48H46.5C47.25 48 48 48.75 48 49.5V54.5C48 55.375 47.25 56 46.5 56H41.5C40.625 56 40 55.375 40 54.5V49.5ZM24 33.5C24 32.75 24.625 32 25.5 32H30.5C31.25 32 32 32.75 32 33.5V38.5C32 39.375 31.25 40 30.5 40H25.5C24.625 40 24 39.375 24 38.5V33.5ZM24 49.5C24 48.75 24.625 48 25.5 48H30.5C31.25 48 32 48.75 32 49.5V54.5C32 55.375 31.25 56 30.5 56H25.5C24.625 56 24 55.375 24 54.5V49.5ZM8 33.5C8 32.75 8.625 32 9.5 32H14.5C15.25 32 16 32.75 16 33.5V38.5C16 39.375 15.25 40 14.5 40H9.5C8.625 40 8 39.375 8 38.5V33.5ZM8 49.5C8 48.75 8.625 48 9.5 48H14.5C15.25 48 16 48.75 16 49.5V54.5C16 55.375 15.25 56 14.5 56H9.5C8.625 56 8 55.375 8 54.5V49.5ZM50 8H44V2C44 1 43 0 42 0H38C36.875 0 36 1 36 2V8H20V2C20 1 19 0 18 0H14C12.875 0 12 1 12 2V8H6C2.625 8 0 10.75 0 14V20H56V14C56 10.75 53.25 8 50 8Z" fill="white"/>
</svg>
